<svg width="32" height="32" viewBox="0 0 32 32" fill="none" xmlns="http://www.w3.org/2000/svg">
<path d="M7.14287 5.71436H24.8572C25.8059 5.71429 26.7187 6.07727 27.4083 6.72884C28.0979 7.3804 28.512 8.27115 28.5657 9.21836L28.5714 9.42864V22.5715C28.5715 23.5202 28.2085 24.433 27.557 25.1226C26.9054 25.8122 26.0147 26.2264 25.0674 26.2801L24.8572 26.2858H7.14287C6.19415 26.2858 5.28136 25.9229 4.59175 25.2713C3.90215 24.6197 3.48802 23.729 3.4343 22.7818L3.42859 22.5715V9.42864C3.42853 8.47991 3.79151 7.56712 4.44307 6.87752C5.09463 6.18792 5.98538 5.77378 6.93259 5.72007L7.14287 5.71436ZM26.8572 12.4629L16.3954 17.9029C16.2941 17.9556 16.1833 17.9875 16.0694 17.9967C15.9556 18.0059 15.8411 17.9923 15.7326 17.9566L15.6046 17.9029L5.14287 12.4629V22.5715C5.14289 23.0734 5.33164 23.557 5.67165 23.9262C6.01166 24.2955 6.47807 24.5233 6.9783 24.5646L7.14287 24.5715H24.8572C25.3593 24.5715 25.843 24.3826 26.2123 24.0423C26.5815 23.7021 26.8093 23.2354 26.8503 22.7349L26.8572 22.5715V12.4629ZM24.8572 7.42864H7.14287C6.64094 7.42866 6.15737 7.61741 5.78814 7.95742C5.41892 8.29743 5.19103 8.76384 5.14973 9.26407L5.14287 9.42864V10.5304L16 16.1761L26.8572 10.5304V9.42864C26.8571 8.92653 26.6682 8.4428 26.328 8.07355C25.9877 7.70429 25.521 7.47653 25.0206 7.4355L24.8572 7.42864Z" fill="#1C1C1C"/>
</svg>
