<svg width="252" height="252" viewBox="0 0 252 252" fill="none" xmlns="http://www.w3.org/2000/svg">
<path d="M212.625 102.375H100.495L206.719 74.3301C207.724 74.0652 208.667 73.6038 209.494 72.9725C210.32 72.3412 211.013 71.5525 211.533 70.652C212.052 69.7514 212.389 68.7569 212.522 67.7257C212.656 66.6945 212.584 65.6471 212.31 64.6439L204.278 35.1126C203.172 31.1396 200.546 27.762 196.968 25.7113C193.39 23.6607 189.148 23.1021 185.161 24.1565L35.2505 63.7284C33.2545 64.2466 31.3819 65.1577 29.7423 66.4085C28.1028 67.6593 26.7292 69.2246 25.7021 71.0128C24.6692 72.779 24.0019 74.7349 23.7398 76.7641C23.4777 78.7933 23.6261 80.8546 24.1763 82.8253L31.5001 109.817V196.875C31.5001 201.052 33.1594 205.058 36.1131 208.012C39.0668 210.966 43.0729 212.625 47.2501 212.625H204.75C208.927 212.625 212.933 210.966 215.887 208.012C218.841 205.058 220.5 201.052 220.5 196.875V110.25C220.5 108.161 219.67 106.158 218.194 104.682C216.717 103.205 214.714 102.375 212.625 102.375ZM189.158 39.375L195.064 61.1001L172.797 67.0064L145.117 51.0201L189.158 39.375ZM123.51 56.7L151.19 72.6862L114.827 82.2839L87.1468 66.3173L123.51 56.7ZM45.3502 100.623L39.444 78.8878L65.5299 71.9972L93.2105 88.0031L45.3502 100.623ZM204.75 196.875H47.2501V118.125H204.75V196.875Z" fill="white"/>
</svg>
